<svg width="186" height="62" viewBox="0 0 186 62" fill="none" xmlns="http://www.w3.org/2000/svg">
<g clip-path="url(#clip0)">
<path d="M3.18905 59.2884V51.1535H0.182434V50.0504H7.42564V51.1535H4.41902V59.2884H3.18905ZM8.01785 59.2884V50.0504H9.15672V53.3595C9.70337 52.7621 10.3411 52.4403 11.1611 52.4403C11.6622 52.4403 12.0722 52.5323 12.4367 52.7161C12.8011 52.8999 13.0289 53.1757 13.2111 53.5434C13.3933 53.8651 13.4389 54.3707 13.4389 55.0141V59.2424H12.3V55.0141C12.3 54.4166 12.1633 54.0489 11.9356 53.7732C11.7078 53.4974 11.3433 53.4055 10.8878 53.4055C10.5689 53.4055 10.25 53.4974 9.9767 53.6813C9.70337 53.8651 9.4756 54.0949 9.33894 54.3707C9.20227 54.6464 9.15672 55.0601 9.15672 55.6116V59.2424H8.01785V59.2884ZM19.1788 57.0823L20.3176 57.2202C20.1354 57.9096 19.8165 58.4611 19.3154 58.7828C18.8143 59.1505 18.1766 59.3343 17.4477 59.3343C16.491 59.3343 15.7166 59.0126 15.1244 58.4151C14.5777 57.8177 14.2588 56.9904 14.2588 55.8873C14.2588 54.7843 14.5322 53.9111 15.1244 53.2676C15.7166 52.6242 16.4455 52.3484 17.3566 52.3484C18.2221 52.3484 18.951 52.6242 19.4976 53.2676C20.0443 53.8651 20.3632 54.7383 20.3632 55.8414C20.3632 55.8873 20.3632 56.0252 20.3632 56.1171H15.4433C15.4888 56.8525 15.671 57.404 16.0355 57.8177C16.3999 58.2313 16.8555 58.4151 17.4021 58.4151C17.8121 58.4151 18.131 58.2773 18.4499 58.0934C18.7688 57.9555 18.9965 57.5879 19.1788 57.0823ZM15.4888 55.2899H19.1788C19.1332 54.7383 18.9965 54.3247 18.7688 54.0489C18.4043 53.6353 17.9488 53.4055 17.4021 53.4055C16.901 53.4055 16.4455 53.5893 16.1266 53.9111C15.7166 54.2328 15.5344 54.6924 15.4888 55.2899ZM25.1464 59.2884V50.0504H26.3764V59.2884H25.1464ZM27.4242 57.2661L28.5175 57.0823C28.563 57.5419 28.7453 57.8636 29.0186 58.1394C29.2919 58.3692 29.7019 58.5071 30.203 58.5071C30.7041 58.5071 31.1141 58.3692 31.3419 58.1853C31.5696 57.9555 31.7063 57.7257 31.7063 57.45C31.7063 57.1742 31.5696 56.9904 31.3874 56.8525C31.2052 56.7606 30.8408 56.6227 30.2486 56.4848C29.4286 56.301 28.8364 56.1171 28.5175 55.9333C28.1986 55.7954 27.9708 55.5656 27.7886 55.2899C27.6064 55.0141 27.5608 54.6924 27.5608 54.3707C27.5608 54.0949 27.6064 53.7732 27.743 53.5434C27.8797 53.3136 28.0619 53.0838 28.2897 52.8999C28.4719 52.7621 28.6997 52.6701 29.0186 52.5782C29.3375 52.4863 29.6563 52.4403 29.9752 52.4403C30.4763 52.4403 30.9319 52.5323 31.3419 52.6701C31.7519 52.808 32.0252 53.0378 32.2074 53.2676C32.3896 53.5434 32.5263 53.8651 32.5718 54.3247L31.4785 54.4626C31.433 54.0949 31.2963 53.8651 31.0685 53.6353C30.8408 53.4515 30.4763 53.3595 30.0663 53.3595C29.5652 53.3595 29.1552 53.4515 28.973 53.6353C28.7453 53.8191 28.6541 54.003 28.6541 54.2328C28.6541 54.3707 28.6997 54.5085 28.7908 54.6464C28.8819 54.7843 29.0186 54.8762 29.2008 54.9681C29.2919 55.0141 29.6563 55.106 30.203 55.2439C31.023 55.4737 31.5241 55.6116 31.8885 55.7495C32.2074 55.8873 32.4352 56.0712 32.6174 56.3469C32.7996 56.6227 32.8907 56.9444 32.8907 57.3121C32.8907 57.6798 32.7541 58.0475 32.5718 58.3692C32.3441 58.6909 32.0252 58.9667 31.6152 59.1505C31.2052 59.3343 30.7497 59.4263 30.203 59.4263C29.3375 59.4263 28.6997 59.2424 28.2441 58.8747C27.8342 58.5071 27.5153 57.9555 27.4242 57.2661ZM33.7107 59.2884V50.0504H34.8496V59.2884H33.7107ZM40.4073 58.4611C39.9973 58.8288 39.5873 59.0586 39.1773 59.1965C38.8128 59.3343 38.3573 59.4263 37.9473 59.4263C37.2184 59.4263 36.6718 59.2424 36.2618 58.8747C35.8518 58.5071 35.6696 58.0475 35.6696 57.4959C35.6696 57.1742 35.7607 56.8525 35.8973 56.5767C36.034 56.301 36.2618 56.0712 36.4896 55.9333C36.7173 55.7495 36.9907 55.6575 37.3095 55.5656C37.5373 55.5197 37.8562 55.4277 38.3117 55.3818C39.2228 55.2899 39.9062 55.152 40.3162 55.0141C40.3162 54.8762 40.3162 54.7383 40.3162 54.7383C40.3162 54.2787 40.1795 53.957 39.9973 53.7732C39.7239 53.4974 39.2684 53.4055 38.7217 53.4055C38.2206 53.4055 37.8106 53.4974 37.5373 53.6813C37.264 53.8651 37.0818 54.1868 36.9907 54.6464L35.8973 54.5085C35.9885 54.0489 36.1707 53.6353 36.3984 53.3595C36.6262 53.0838 36.9907 52.854 37.4007 52.6701C37.8106 52.4863 38.3117 52.4403 38.904 52.4403C39.4962 52.4403 39.9517 52.4863 40.2706 52.6242C40.635 52.7621 40.8628 52.9459 41.045 53.1297C41.2272 53.3136 41.3184 53.5893 41.4095 53.9111C41.455 54.0949 41.455 54.4626 41.455 54.9681V56.4848C41.455 57.5419 41.5006 58.1853 41.5006 58.4611C41.5461 58.7368 41.6372 59.0126 41.7739 59.2884H40.5895C40.4984 59.0586 40.4528 58.7368 40.4073 58.4611ZM40.3162 55.9333C39.9062 56.1171 39.3139 56.255 38.494 56.3469C38.0384 56.3929 37.674 56.4848 37.4918 56.5767C37.3095 56.6687 37.1729 56.7606 37.0362 56.9444C36.8996 57.1283 36.8995 57.2661 36.8995 57.45C36.8995 57.7717 36.9907 58.0015 37.264 58.1853C37.4918 58.3692 37.8106 58.5071 38.2662 58.5071C38.6762 58.5071 39.0862 58.4151 39.4051 58.2313C39.7239 58.0475 39.9973 57.7717 40.1339 57.45C40.2706 57.1742 40.3162 56.8065 40.3162 56.3469V55.9333ZM42.685 59.2884V52.6242H43.6872V53.5434C43.915 53.2217 44.1883 52.9459 44.5072 52.7621C44.8716 52.5782 45.2361 52.4863 45.6916 52.4863C46.1927 52.4863 46.5572 52.5782 46.876 52.808C47.1949 52.9919 47.4227 53.3136 47.5594 53.6813C48.106 52.8999 48.7893 52.5323 49.6093 52.5323C50.2471 52.5323 50.7937 52.7161 51.1126 53.0838C51.4771 53.4515 51.6593 54.003 51.6593 54.7843V59.3803H50.566V55.152C50.566 54.6924 50.5204 54.3707 50.4749 54.1868C50.3838 54.003 50.2926 53.8191 50.0649 53.7272C49.8826 53.5893 49.6549 53.5434 49.3815 53.5434C48.926 53.5434 48.516 53.6813 48.1971 54.003C47.8782 54.3247 47.7416 54.8303 47.7416 55.5197V59.3803H46.6027V55.0601C46.6027 54.5545 46.5116 54.1868 46.3294 53.9111C46.1472 53.6353 45.8283 53.5434 45.4183 53.5434C45.0994 53.5434 44.8261 53.6353 44.5527 53.7732C44.2794 53.957 44.0972 54.1868 43.9605 54.5085C43.8239 54.8303 43.7783 55.2899 43.7783 55.8873V59.3343H42.685V59.2884ZM52.8437 51.3373V50.0504H53.9826V51.3373H52.8437ZM52.8437 59.2884V52.6242H53.9826V59.2884H52.8437ZM59.4947 56.8065L60.588 56.9444C60.4513 57.7257 60.178 58.2773 59.6769 58.7369C59.1758 59.1505 58.5836 59.3803 57.8547 59.3803C56.9436 59.3803 56.2148 59.1045 55.6681 58.5071C55.1214 57.9096 54.8481 57.0363 54.8481 55.9333C54.8481 55.1979 54.9848 54.6005 55.2126 54.0489C55.4403 53.4974 55.8048 53.0838 56.3059 52.808C56.807 52.5323 57.3081 52.3944 57.9003 52.3944C58.6292 52.3944 59.2214 52.5782 59.6769 52.9459C60.1325 53.3136 60.4058 53.8191 60.5425 54.5085L59.4491 54.6924C59.358 54.2328 59.1758 53.9111 58.9025 53.6813C58.6292 53.4515 58.3103 53.3595 57.9458 53.3595C57.3992 53.3595 56.8981 53.5434 56.5792 53.957C56.2148 54.3707 56.0325 55.0141 56.0325 55.8873C56.0325 56.8065 56.2148 57.45 56.5336 57.8636C56.8981 58.2773 57.3081 58.4611 57.8547 58.4611C58.3103 58.4611 58.6747 58.3232 58.948 58.0475C59.2214 57.8177 59.4036 57.404 59.4947 56.8065ZM64.779 59.2884V50.0504H68.8334C69.6534 50.0504 70.2912 50.1423 70.7012 50.3262C71.1112 50.51 71.4756 50.7858 71.7034 51.1994C71.9767 51.6131 72.0678 52.0727 72.0678 52.5782C72.0678 53.2217 71.84 53.7732 71.43 54.2328C71.0201 54.6924 70.3823 54.9681 69.4712 55.106C69.7901 55.2439 70.0178 55.4277 70.2001 55.5656C70.5645 55.8873 70.8834 56.301 71.2023 56.8065L72.7967 59.3343H71.2934L70.0634 57.404C69.699 56.8525 69.4256 56.4389 69.1979 56.1171C68.9701 55.8414 68.7879 55.6116 68.5601 55.5197C68.3779 55.4277 68.1957 55.3358 68.0134 55.2899C67.8768 55.2439 67.649 55.2439 67.3301 55.2439H65.9635V59.3343H64.779V59.2884ZM66.009 54.0949H68.6057C69.1523 54.0949 69.5623 54.0489 69.8812 53.9111C70.2001 53.7732 70.4278 53.6353 70.6101 53.3595C70.7467 53.0838 70.8378 52.854 70.8378 52.5323C70.8378 52.1186 70.7012 51.7509 70.3823 51.4752C70.0634 51.1994 69.5623 51.0615 68.879 51.0615H66.009V54.0949ZM77.8533 57.0823L79.0377 57.2202C78.8555 57.9096 78.5366 58.4611 78.0355 58.7828C77.5344 59.1505 76.8966 59.3343 76.1222 59.3343C75.1655 59.3343 74.3911 59.0126 73.8444 58.4151C73.2522 57.8177 72.9789 56.9904 72.9789 55.8873C72.9789 54.7843 73.2522 53.9111 73.8444 53.2676C74.3911 52.6242 75.1655 52.3484 76.0766 52.3484C76.9877 52.3484 77.671 52.6242 78.2633 53.2676C78.8099 53.8651 79.0832 54.7383 79.0832 55.8414C79.0832 55.8873 79.0832 56.0252 79.0832 56.1171H74.1633C74.2089 56.8525 74.3911 57.404 74.7555 57.8177C75.12 58.2313 75.5755 58.4151 76.1222 58.4151C76.5322 58.4151 76.8966 58.2773 77.1699 58.0934C77.4433 57.9555 77.671 57.5879 77.8533 57.0823ZM74.1633 55.2899H77.8533C77.8077 54.7383 77.671 54.3247 77.4433 54.0489C77.0788 53.6353 76.6233 53.4055 76.0766 53.4055C75.5755 53.4055 75.12 53.5893 74.8011 53.9111C74.4367 54.2328 74.2089 54.6924 74.1633 55.2899ZM79.9488 61.8162V52.5782H80.951V53.4515C81.1787 53.0838 81.4521 52.854 81.771 52.6701C82.0898 52.4863 82.4543 52.3944 82.8643 52.3944C83.4109 52.3944 83.912 52.5323 84.3676 52.808C84.7776 53.0838 85.142 53.4974 85.3242 54.0489C85.552 54.6005 85.6431 55.152 85.6431 55.7954C85.6431 56.4848 85.5065 57.0823 85.2787 57.6338C85.0509 58.1853 84.6865 58.599 84.2309 58.8747C83.7754 59.1505 83.2743 59.2884 82.7732 59.2884C82.4087 59.2884 82.0443 59.1965 81.771 59.0586C81.4976 58.9207 81.2243 58.6909 81.0421 58.4611V61.7243H79.9488V61.8162ZM80.951 55.9793C80.951 56.8525 81.1332 57.45 81.4521 57.8636C81.8165 58.2773 82.2265 58.5071 82.6821 58.5071C83.1832 58.5071 83.5932 58.2773 83.9576 57.8636C84.322 57.45 84.5042 56.8065 84.5042 55.8873C84.5042 55.0601 84.322 54.4166 84.0031 53.957C83.6387 53.5434 83.2287 53.3136 82.7732 53.3136C82.2721 53.3136 81.8621 53.5434 81.4976 54.003C81.1332 54.4626 80.951 55.106 80.951 55.9793ZM90.8819 59.2884V58.2773C90.3808 59.0586 89.6519 59.4263 88.7864 59.4263C88.3764 59.4263 88.0575 59.3343 87.6931 59.1965C87.3286 59.0586 87.1009 58.8288 86.9186 58.6449C86.7364 58.4151 86.6453 58.1394 86.5542 57.8177C86.5087 57.5879 86.4631 57.2661 86.4631 56.7606V52.6242H87.602V56.3469C87.602 56.9444 87.602 57.3121 87.6475 57.5419C87.7386 57.8177 87.8753 58.0934 88.1031 58.2313C88.3308 58.4151 88.6042 58.5071 88.9686 58.5071C89.2875 58.5071 89.6064 58.4151 89.9253 58.2313C90.1986 58.0475 90.4264 57.8177 90.563 57.4959C90.6997 57.2202 90.7452 56.7606 90.7452 56.2091V52.6242H91.8841V59.2884H90.8819ZM94.2074 59.2884H93.1596V50.0504H94.2985V53.3595C94.7541 52.7621 95.3918 52.4403 96.1207 52.4403C96.5307 52.4403 96.9407 52.5323 97.2596 52.6701C97.624 52.854 97.9429 53.0838 98.1707 53.3595C98.3984 53.6813 98.5807 54.003 98.7173 54.4626C98.854 54.8762 98.8995 55.3358 98.8995 55.8414C98.8995 56.9904 98.6262 57.8636 98.0796 58.5071C97.5329 59.1045 96.8496 59.4263 96.0751 59.4263C95.3007 59.4263 94.6629 59.1045 94.253 58.4611V59.2884H94.2074ZM94.1618 55.8873C94.1618 56.6687 94.2985 57.2661 94.4807 57.6338C94.8452 58.2313 95.3007 58.5071 95.8929 58.5071C96.394 58.5071 96.804 58.2773 97.1685 57.8636C97.5329 57.45 97.7151 56.8065 97.7151 55.9333C97.7151 55.0601 97.5329 54.4166 97.214 54.003C96.8951 53.5893 96.4396 53.4055 95.984 53.4055C95.4829 53.4055 95.0729 53.6353 94.7085 54.0489C94.3441 54.4626 94.1618 55.0601 94.1618 55.8873ZM99.7195 59.2884V50.0504H100.858V59.2884H99.7195ZM102.088 51.3373V50.0504H103.227V51.3373H102.088ZM102.088 59.2884V52.6242H103.227V59.2884H102.088ZM108.785 56.8065L109.878 56.9444C109.742 57.7257 109.468 58.2773 108.967 58.7369C108.466 59.1505 107.874 59.3803 107.145 59.3803C106.234 59.3803 105.505 59.1045 104.958 58.5071C104.412 57.9096 104.138 57.0363 104.138 55.9333C104.138 55.1979 104.275 54.6005 104.503 54.0489C104.731 53.4974 105.095 53.0838 105.596 52.808C106.097 52.5323 106.598 52.3944 107.191 52.3944C107.919 52.3944 108.466 52.5782 108.967 52.9459C109.423 53.3136 109.696 53.8191 109.833 54.5085L108.739 54.6924C108.648 54.2328 108.466 53.9111 108.193 53.6813C107.919 53.4515 107.6 53.3595 107.236 53.3595C106.644 53.3595 106.234 53.5434 105.869 53.957C105.505 54.3707 105.323 55.0141 105.323 55.8873C105.323 56.8065 105.505 57.45 105.824 57.8636C106.188 58.2773 106.598 58.4611 107.145 58.4611C107.6 58.4611 107.965 58.3232 108.238 58.0475C108.512 57.8177 108.694 57.404 108.785 56.8065ZM114.024 59.2884V50.0504H115.254L120.037 57.3121V50.0504H121.176V59.2884H119.946L115.163 52.0267V59.2884H114.024ZM127.143 57.0823L128.282 57.2202C128.1 57.9096 127.781 58.4611 127.28 58.7828C126.779 59.1505 126.141 59.3343 125.367 59.3343C124.41 59.3343 123.636 59.0126 123.089 58.4151C122.497 57.8177 122.224 56.9904 122.224 55.8873C122.224 54.7843 122.497 53.9111 123.089 53.2676C123.681 52.6242 124.41 52.3484 125.321 52.3484C126.187 52.3484 126.916 52.6242 127.462 53.2676C128.055 53.8651 128.328 54.7383 128.328 55.8414C128.328 55.8873 128.328 56.0252 128.328 56.1171H123.408C123.454 56.8525 123.681 57.404 124 57.8177C124.365 58.2313 124.82 58.4151 125.367 58.4151C125.777 58.4151 126.141 58.2773 126.415 58.0934C126.733 57.9555 126.961 57.5879 127.143 57.0823ZM123.454 55.2899H127.143C127.098 54.7383 126.961 54.3247 126.733 54.0489C126.369 53.6353 125.914 53.4055 125.367 53.4055C124.866 53.4055 124.41 53.5893 124.046 53.9111C123.681 54.2328 123.499 54.6924 123.454 55.2899ZM130.423 59.2884L128.419 52.6242H129.603L130.651 56.4848L131.016 57.9096C131.061 57.8177 131.152 57.3581 131.38 56.5308L132.428 52.6242H133.567L134.569 56.5308L134.888 57.8177L135.252 56.5308L136.391 52.6701H137.484L135.389 59.3343H134.25L133.202 55.3358L132.929 54.1868L131.562 59.3343H130.423V59.2884ZM137.484 57.2661L138.578 57.0823C138.623 57.5419 138.805 57.8636 139.079 58.1394C139.352 58.3692 139.762 58.5071 140.263 58.5071C140.764 58.5071 141.174 58.3692 141.402 58.1853C141.675 57.9555 141.767 57.7257 141.767 57.45C141.767 57.1742 141.63 56.9904 141.402 56.8525C141.265 56.7606 140.855 56.6227 140.263 56.4848C139.443 56.301 138.897 56.1171 138.578 55.9333C138.259 55.7954 138.031 55.5656 137.849 55.2899C137.667 55.0141 137.576 54.6924 137.576 54.3707C137.576 54.0949 137.667 53.7732 137.758 53.5434C137.894 53.3136 138.077 53.0838 138.304 52.8999C138.487 52.7621 138.714 52.6701 139.033 52.5782C139.307 52.4863 139.625 52.4403 139.99 52.4403C140.537 52.4403 140.947 52.5323 141.357 52.6701C141.767 52.808 142.04 53.0378 142.222 53.2676C142.404 53.5434 142.541 53.8651 142.587 54.3247L141.493 54.4626C141.448 54.0949 141.311 53.8651 141.083 53.6353C140.855 53.4515 140.491 53.3595 140.081 53.3595C139.58 53.3595 139.215 53.4515 138.988 53.6353C138.76 53.8191 138.669 54.003 138.669 54.2328C138.669 54.3707 138.714 54.5085 138.805 54.6464C138.897 54.7843 139.033 54.8762 139.215 54.9681C139.352 55.0141 139.625 55.106 140.218 55.2439C140.992 55.4737 141.584 55.6116 141.858 55.7495C142.177 55.8873 142.45 56.0712 142.587 56.3469C142.769 56.6227 142.86 56.9444 142.86 57.3121C142.86 57.6798 142.769 58.0475 142.541 58.3692C142.313 58.6909 141.994 58.9667 141.584 59.1505C141.174 59.3343 140.719 59.4263 140.172 59.4263C139.307 59.4263 138.669 59.2424 138.213 58.8747C137.894 58.5071 137.621 57.9555 137.484 57.2661ZM145.821 59.2884L149.329 50.0504H150.65L154.385 59.2884H153.019L151.971 56.4848H148.099L147.096 59.2884H145.821ZM148.463 55.4737H151.561L150.604 52.8999C150.331 52.1186 150.103 51.4752 149.966 50.9696C149.83 51.5671 149.693 52.1646 149.465 52.7621L148.463 55.4737ZM154.476 59.8399L155.57 59.9778C155.615 60.3455 155.752 60.5753 155.934 60.7131C156.207 60.9429 156.572 61.0349 157.073 61.0349C157.574 61.0349 157.984 60.9429 158.257 60.7131C158.531 60.5293 158.713 60.2076 158.85 59.8399C158.895 59.6101 158.941 59.1505 158.941 58.4151C158.44 59.0126 157.847 59.2884 157.118 59.2884C156.207 59.2884 155.524 58.9667 155.023 58.2773C154.522 57.5879 154.294 56.8065 154.294 55.8873C154.294 55.2439 154.431 54.6464 154.659 54.0949C154.886 53.5434 155.205 53.1297 155.661 52.854C156.116 52.5782 156.617 52.4403 157.21 52.4403C157.984 52.4403 158.622 52.7621 159.123 53.4055V52.5782H160.171V58.3692C160.171 59.4263 160.08 60.1616 159.852 60.5753C159.67 60.9889 159.305 61.3566 158.85 61.5864C158.394 61.8621 157.847 61.9541 157.164 61.9541C156.344 61.9541 155.706 61.7702 155.251 61.4025C154.704 61.0808 154.476 60.5293 154.476 59.8399ZM155.433 55.8414C155.433 56.7146 155.615 57.3581 155.934 57.7257C156.299 58.1394 156.708 58.3232 157.21 58.3232C157.711 58.3232 158.166 58.1394 158.485 57.7257C158.85 57.3121 159.032 56.7146 159.032 55.8414C159.032 55.0141 158.85 54.4166 158.485 54.003C158.121 53.5893 157.711 53.4055 157.21 53.4055C156.708 53.4055 156.299 53.5893 155.934 54.003C155.57 54.4166 155.433 55.0141 155.433 55.8414ZM165.819 57.0823L166.958 57.2202C166.776 57.9096 166.457 58.4611 165.956 58.7828C165.455 59.1505 164.817 59.3343 164.043 59.3343C163.086 59.3343 162.312 59.0126 161.765 58.4151C161.218 57.8177 160.9 56.9904 160.9 55.8873C160.9 54.7843 161.173 53.9111 161.765 53.2676C162.357 52.6242 163.086 52.3484 163.997 52.3484C164.908 52.3484 165.592 52.6242 166.138 53.2676C166.685 53.8651 167.004 54.7383 167.004 55.8414C167.004 55.8873 167.004 56.0252 167.004 56.1171H162.084C162.13 56.8525 162.357 57.404 162.676 57.8177C163.041 58.2313 163.496 58.4151 164.043 58.4151C164.453 58.4151 164.817 58.2773 165.091 58.0934C165.409 57.9555 165.637 57.5879 165.819 57.0823ZM162.13 55.2899H165.819C165.774 54.7383 165.637 54.3247 165.409 54.0489C165.045 53.6353 164.589 53.4055 164.043 53.4055C163.542 53.4055 163.086 53.5893 162.722 53.9111C162.403 54.2328 162.175 54.6924 162.13 55.2899ZM167.915 59.2884V52.6242H168.917V53.5893C169.418 52.854 170.102 52.4863 171.013 52.4863C171.423 52.4863 171.787 52.5782 172.106 52.7161C172.425 52.854 172.698 53.0378 172.835 53.2676C173.017 53.4974 173.108 53.7732 173.199 54.0949C173.245 54.2787 173.245 54.6464 173.245 55.1979V59.2884H172.106V55.2439C172.106 54.7843 172.06 54.4626 171.969 54.2328C171.878 54.003 171.742 53.8191 171.514 53.6813C171.286 53.5434 171.013 53.4974 170.739 53.4974C170.284 53.4974 169.874 53.6353 169.509 53.957C169.145 54.2787 169.008 54.8303 169.008 55.7035V59.3343H167.915V59.2884ZM178.848 56.8065L179.941 56.9444C179.805 57.7257 179.531 58.2773 179.03 58.7369C178.529 59.1505 177.937 59.3803 177.208 59.3803C176.297 59.3803 175.568 59.1045 175.022 58.5071C174.475 57.9096 174.202 57.0363 174.202 55.9333C174.202 55.1979 174.338 54.6005 174.566 54.0489C174.794 53.4974 175.158 53.0838 175.659 52.808C176.16 52.5323 176.661 52.3944 177.254 52.3944C177.983 52.3944 178.575 52.5782 179.03 52.9459C179.486 53.3136 179.759 53.8191 179.896 54.5085L178.803 54.6924C178.666 54.2328 178.529 53.9111 178.256 53.6813C177.983 53.4515 177.664 53.3595 177.299 53.3595C176.753 53.3595 176.251 53.5434 175.933 53.957C175.568 54.3707 175.386 55.0141 175.386 55.8873C175.386 56.8065 175.568 57.45 175.887 57.8636C176.251 58.2773 176.661 58.4611 177.208 58.4611C177.664 58.4611 178.028 58.3232 178.301 58.0475C178.575 57.8177 178.757 57.404 178.848 56.8065ZM180.351 61.8162L180.215 60.7591C180.488 60.805 180.67 60.851 180.853 60.851C181.126 60.851 181.308 60.8051 181.445 60.7131C181.581 60.6212 181.718 60.5293 181.809 60.3455C181.9 60.2076 181.991 59.9318 182.174 59.5182C182.219 59.4722 182.219 59.3803 182.265 59.2424L179.759 52.5323H180.944L182.31 56.3929C182.492 56.8985 182.629 57.404 182.811 57.9096C182.948 57.404 183.085 56.8985 183.267 56.3929L184.679 52.4863H185.818L183.312 59.2884C183.039 60.0237 182.857 60.5293 182.675 60.8051C182.492 61.1727 182.219 61.4485 181.991 61.6323C181.718 61.8162 181.445 61.9081 181.08 61.9081C180.853 62 180.625 61.9081 180.351 61.8162Z" fill="#DDDDDD"/>
<path d="M67.3755 47.3388V7.16977H75.4387V47.3388H67.3755ZM78.6731 47.3388V7.16977H95.6194C99.9016 7.16977 102.954 7.53745 104.913 8.27281C106.871 9.00817 108.375 10.295 109.559 12.0875C110.698 13.9259 111.29 16.04 111.29 18.43C111.29 21.4633 110.425 23.9452 108.648 25.8755C106.871 27.8518 104.275 29.0927 100.813 29.5982C102.544 30.6094 103.956 31.7584 105.095 32.9533C106.234 34.1942 107.737 36.3544 109.65 39.4796L114.525 47.2928H104.913L99.1271 38.5145C97.0772 35.3892 95.665 33.4589 94.8906 32.6316C94.1161 31.8043 93.3417 31.2528 92.4762 30.977C91.6106 30.7013 90.244 30.5174 88.4218 30.5174H86.7818V47.3388H78.6731ZM86.7363 24.175H92.7039C96.5761 24.175 98.9449 24.0371 99.9471 23.6694C100.904 23.3477 101.678 22.7502 102.179 21.9689C102.726 21.1876 102.999 20.1764 102.999 18.9355C102.999 17.5567 102.635 16.4996 101.952 15.6724C101.223 14.8451 100.22 14.3395 98.9449 14.1097C98.2616 14.0178 96.3028 13.9718 93.0684 13.9718H86.7818V24.175H86.7363ZM114.388 47.3388V7.16977H122.178L138.578 34.1023V7.16977H146.049V47.3388H137.985L121.859 20.9578V47.3388H114.388ZM186 47.3388H177.299L173.837 38.1928H157.893L154.567 47.3388H146.049L161.492 7.16977H170.01L186 47.3388ZM171.286 31.4366L165.728 16.5456L160.353 31.4366H171.286Z" fill="white"/>
<path d="M160.079 47.063H158.804V42.0993C158.348 42.5589 157.756 42.8806 157.118 43.1104V41.9155C157.483 41.7776 157.847 41.5938 158.212 41.272C158.622 40.9503 158.895 40.5826 159.032 40.169H160.079V47.063ZM160.763 45.3625L162.038 45.2246C162.084 45.5004 162.175 45.6842 162.266 45.8221C162.403 45.96 162.585 46.0059 162.767 46.0059C163.04 46.0059 163.268 45.868 163.45 45.6382C163.633 45.4084 163.769 44.8569 163.815 44.0756C163.496 44.4433 163.086 44.6731 162.585 44.6731C162.038 44.6731 161.583 44.4433 161.173 44.0296C160.808 43.616 160.58 43.0645 160.58 42.421C160.58 41.7316 160.763 41.1801 161.218 40.7205C161.628 40.3069 162.129 40.0771 162.767 40.0771C163.45 40.0771 164.043 40.3528 164.453 40.9044C164.908 41.4559 165.136 42.3291 165.136 43.57C165.136 44.8569 164.908 45.7302 164.453 46.2817C163.997 46.8332 163.405 47.109 162.676 47.109C162.129 47.109 161.719 46.9711 161.4 46.6953C161.082 46.3736 160.854 45.96 160.763 45.3625ZM163.678 42.467C163.678 42.0534 163.587 41.7316 163.405 41.5018C163.223 41.272 162.995 41.1342 162.722 41.1342C162.494 41.1342 162.266 41.2261 162.129 41.4099C161.947 41.5938 161.902 41.9155 161.902 42.3291C161.902 42.7887 161.993 43.1104 162.175 43.2943C162.357 43.4781 162.539 43.616 162.813 43.616C163.086 43.616 163.268 43.5241 163.45 43.3402C163.633 43.1564 163.678 42.8806 163.678 42.467ZM165.409 45.2246L166.685 45.0867C166.73 45.4084 166.821 45.6382 167.004 45.8221C167.186 46.0059 167.414 46.0978 167.641 46.0978C167.915 46.0978 168.143 46.0059 168.325 45.7761C168.507 45.5923 168.598 45.3165 168.598 44.9488C168.598 44.6271 168.507 44.3514 168.325 44.1675C168.143 43.9837 167.915 43.8918 167.687 43.8918C167.505 43.8918 167.323 43.9377 167.095 43.9837L167.231 42.9266C167.596 42.9266 167.869 42.8806 168.051 42.6968C168.234 42.513 168.325 42.3291 168.325 42.0534C168.325 41.8236 168.279 41.6397 168.143 41.5018C168.006 41.364 167.824 41.318 167.596 41.318C167.368 41.318 167.186 41.4099 167.049 41.5478C166.867 41.6857 166.776 41.9155 166.776 42.2372L165.546 42.0534C165.637 41.6397 165.774 41.318 165.91 41.0422C166.093 40.8124 166.32 40.6286 166.639 40.4448C166.958 40.3069 167.277 40.215 167.641 40.215C168.279 40.215 168.78 40.4448 169.19 40.8584C169.509 41.2261 169.646 41.5938 169.646 42.0074C169.646 42.6049 169.327 43.1104 168.689 43.4781C169.099 43.57 169.373 43.7539 169.646 44.0296C169.874 44.3054 170.01 44.6731 170.01 45.0867C170.01 45.6842 169.783 46.1898 169.373 46.6494C168.917 47.063 168.416 47.2928 167.733 47.2928C167.095 47.2928 166.594 47.109 166.229 46.7413C165.728 46.2817 165.5 45.8221 165.409 45.2246ZM173.062 47.063V45.6842H170.284V44.5352L173.199 40.169H174.292V44.5352H175.158V45.6842H174.292V47.063H173.062ZM173.062 44.5352V42.1912L171.514 44.5352H173.062Z" fill="#C1C4C6"/>
<path d="M52.5702 7.16976C54.2557 7.16976 55.6679 8.36472 56.0323 9.97331H56.2145C56.579 8.36472 57.9912 7.16976 59.6767 7.16976C61.6356 7.16976 63.1844 8.77835 63.1844 10.7087C63.1844 12.685 61.59 14.2476 59.6767 14.2476C57.9912 14.2476 56.579 13.0526 56.2145 11.444H56.0323C55.6679 13.0526 54.2557 14.2476 52.5702 14.2476C50.8846 14.2476 49.4724 13.0526 49.1536 11.444H48.9713C48.6069 13.0526 47.1947 14.2476 45.5092 14.2476C45.4636 14.2476 45.4181 14.2476 45.3725 14.2476V14.4314C45.4181 14.4314 45.4636 14.4314 45.5092 14.4314C47.1947 14.4314 48.6069 15.6264 48.9713 17.235H49.1536C49.518 15.6264 50.9302 14.4314 52.5702 14.4314C54.2557 14.4314 55.6679 15.6264 56.0323 17.235H56.2145C56.579 15.6264 57.9912 14.4314 59.6767 14.4314C61.6356 14.4314 63.1844 16.04 63.1844 17.9703C63.1844 19.9007 61.59 21.5093 59.6767 21.5093C57.9912 21.5093 56.579 20.3143 56.2145 18.7057H56.0323C55.6679 20.3143 54.2557 21.5093 52.5702 21.5093C50.8846 21.5093 49.4724 20.3143 49.1536 18.7057H48.9713C48.6069 20.3143 47.1947 21.5093 45.5092 21.5093C45.4636 21.5093 45.4181 21.5093 45.3725 21.5093H7.10654L0.0455547 14.7072L0 0L7.19765 7.1238L45.327 7.16976C45.4181 7.16976 45.4636 7.16976 45.5547 7.16976C47.2403 7.16976 48.6525 8.36472 49.0169 9.97331H49.1991C49.4724 8.36472 50.8846 7.16976 52.5702 7.16976ZM0 18.4759L7.19765 25.6457L45.4636 25.6916C45.5092 25.6916 45.5092 25.6916 45.5547 25.6916C47.2403 25.6916 48.6525 26.8866 49.0169 28.4952H49.1536C49.518 26.8866 50.9302 25.6916 52.6157 25.6916C54.3012 25.6916 55.7134 26.8866 56.0779 28.4952H56.2601C56.6245 26.8866 58.0367 25.6916 59.7223 25.6916C61.6811 25.6916 63.23 27.3002 63.23 29.2305C63.23 31.1609 61.6356 32.7695 59.7223 32.7695C58.0367 32.7695 56.6245 31.5745 56.2601 29.9659H56.0323C55.6679 31.5745 54.2557 32.7695 52.5702 32.7695C50.8846 32.7695 49.4724 31.5745 49.108 29.9659H48.9713C48.6069 31.5745 47.2403 32.7695 45.5547 32.7695V32.9533C47.2403 32.9533 48.6525 34.1483 48.9713 35.7569H49.108C49.4724 34.1483 50.8846 32.9533 52.5702 32.9533C54.2557 32.9533 55.6679 34.1483 56.0323 35.7569H56.2145C56.579 34.1483 57.9912 32.9533 59.6767 32.9533C61.6356 32.9533 63.1844 34.5619 63.1844 36.4922C63.1844 38.4225 61.59 40.0311 59.6767 40.0311C57.9912 40.0311 56.579 38.8362 56.2145 37.2276H56.0323C55.6679 38.8362 54.2557 40.0311 52.5702 40.0311C50.8846 40.0311 49.4724 38.8362 49.108 37.2276H48.9713C48.6069 38.8362 47.2403 40.0311 45.5547 40.0311V40.215C47.2403 40.215 48.6525 41.4099 48.9713 43.0185H49.108C49.4724 41.4099 50.8846 40.215 52.5702 40.215C54.2557 40.215 55.6679 41.4099 56.0323 43.0185H56.2145C56.579 41.4099 57.9912 40.215 59.6767 40.215C61.6356 40.215 63.1844 41.8236 63.1844 43.7539C63.1844 45.7302 61.59 47.2928 59.6767 47.2928C57.9912 47.2928 56.579 46.0979 56.2145 44.4893H56.0323C55.6679 46.0979 54.2557 47.2928 52.5702 47.2928C50.8846 47.2928 49.4724 46.0979 49.108 44.4893H48.9713C48.6069 46.0979 47.1947 47.2928 45.5092 47.2928C45.4636 47.2928 45.4181 47.2928 45.4181 47.2928H7.10654L0.0455547 40.4448L0 18.4759Z" fill="white"/>
</g>
<defs>
<clipPath id="clip0">
<rect width="186" height="62" fill="white"/>
</clipPath>
</defs>
</svg>
